<svg xmlns="http://www.w3.org/2000/svg" aria-hidden="true" style="position:absolute;width:0;height:0;overflow:hidden"><defs><symbol id="icon-facebook" viewBox="0 0 17 32"><path d="M16.615.231v5.077h-3.019c-2.365 0-2.808 1.135-2.808 2.769v3.635h5.635l-.75 5.692h-4.885V32H4.903V17.404H-.001v-5.692h4.904V7.52c0-4.865 2.981-7.519 7.327-7.519 2.077 0 3.865.154 4.385.231z"/></symbol><symbol id="icon-instagram" viewBox="0 0 32 32"><path d="M21.332 15.999a5.333 5.333 0 1 0-5.333 5.333A5.343 5.343 0 0 0 21.332 16v-.001zm2.874 0v.002a8.208 8.208 0 1 1-8.208-8.208h.013a8.197 8.197 0 0 1 8.197 8.197V16v-.001zm2.25-8.541a1.917 1.917 0 1 1-1.917-1.917h.007c1.056 0 1.912.856 1.912 1.912v.007zM15.999 2.876c-2.333 0-7.333-.188-9.437.646A5.145 5.145 0 0 0 4.73 4.729l-.001.001a5.116 5.116 0 0 0-1.196 1.798l-.012.035c-.832 2.102-.644 7.102-.644 9.435s-.188 7.333.646 9.437c.28.718.691 1.329 1.207 1.832l.001.001a5.116 5.116 0 0 0 1.798 1.196l.035.012c2.104.833 7.104.646 9.437.646s7.333.188 9.437-.646a5.483 5.483 0 0 0 3.028-3.005l.013-.036c.833-2.104.646-7.104.646-9.437s.188-7.333-.646-9.437a5.145 5.145 0 0 0-1.207-1.832l-.001-.001a5.125 5.125 0 0 0-1.798-1.196l-.035-.012c-2.106-.832-7.105-.644-9.438-.644zm15.998 13.123c0 2.208.021 4.396-.104 6.604-.125 2.562-.708 4.833-2.583 6.708s-4.146 2.458-6.708 2.583c-2.208.125-4.395.104-6.604.104s-4.396.021-6.604-.104c-2.562-.125-4.833-.708-6.708-2.583S.228 25.165.103 22.603c-.123-2.206-.104-4.394-.104-6.604s-.021-4.396.104-6.604c.125-2.562.708-4.833 2.583-6.708S6.832.229 9.394.104C11.604-.019 13.791 0 15.998 0s4.395-.021 6.604.104c2.562.125 4.833.708 6.708 2.583s2.458 4.146 2.583 6.708c.127 2.21.104 4.397.104 6.604z"/></symbol><symbol id="icon-amazon" viewBox="0 0 31 32"><path d="M27.144 26.367c.535-.267.945.143.392.856s-4.992 4.778-12.443 4.778S1.936 26.902.189 24.799c-.481-.553.071-.802.392-.588 5.223 3.173 13.388 8.397 26.563 2.157zm3.69-2.051c.267.357 0 1.925-.463 3.066-.463 1.123-1.141 1.908-1.515 2.211-.392.321-.677.196-.463-.267s1.373-3.316.909-3.922c-.463-.588-2.638-.303-3.423-.232-.767.071-.927.143-.998-.018-.16-.41 1.551-1.105 2.674-1.248 1.123-.125 2.924-.053 3.28.41zm-7.024-7.897c0 1.961 2.3 3.762 2.3 3.762l-4.047 3.993c-1.587-1.497-2.781-2.745-2.781-2.745a3.415 3.415 0 0 1-.437-.573l-.009-.015c-3.227 5.045-13.085 4.724-13.085-3.084 0-7.274 8.611-8.254 12.087-8.379V7.114c0-.481.178-2.674-2.531-2.674 0 0-2.71 0-3.869 3.53l-5.241-.481c0-3.512 3.334-7.434 9.609-7.434 6.257 0 8.004 4.065 8.004 5.865zm-11.98.374c0 3.619 6.008 4.475 6.008-1.23v-2.888c-2.407.071-6.008.749-6.008 4.118z"/></symbol><symbol id="icon-goodreads" viewBox="0 0 20 32"><path d="M20.124 21.302V.653h-2.745v3.875h-.085a7.36 7.36 0 0 0-1.13-1.752l.008.009a8.699 8.699 0 0 0-1.613-1.44l-.029-.019A7.636 7.636 0 0 0 12.56.36l-.055-.015A7.85 7.85 0 0 0 10.177 0h-.035.002C8.531 0 7.077.3 5.816.893s-2.324 1.409-3.18 2.44-1.51 2.235-1.96 3.615-.675 2.838-.675 4.377q0 2.398.567 4.509c.382 1.409.983 2.634 1.824 3.682a8.585 8.585 0 0 0 3.113 2.422l.053.022c1.281.582 2.825.882 4.628.882 1.664 0 3.106-.42 4.349-1.262s2.184-1.964 2.825-3.366h.081v3.045c0 2.725-.562 4.809-1.685 6.273-1.12 1.441-2.965 2.185-5.528 2.185h-.014c-.784 0-1.547-.088-2.28-.255l.069.013a7.138 7.138 0 0 1-2.017-.778l.035.018c-.582-.361-1.102-.801-1.524-1.384s-.701-1.281-.844-2.125H.845c.089 1.182.42 2.205.982 3.066a7.4 7.4 0 0 0 2.108 2.108l.028.017c.854.541 1.822.941 2.896 1.202.998.252 2.145.397 3.325.398h.001c1.844 0 3.388-.26 4.648-.74 1.263-.5 2.286-1.202 3.068-2.144.801-.944 1.361-2.066 1.724-3.408s.56-2.844.56-4.489zm-9.978-.743c-1.273 0-2.378-.252-3.305-.761s-1.702-1.176-2.309-2.004c-.622-.828-1.062-1.776-1.362-2.852a11.985 11.985 0 0 1-.443-3.265v-.05.003c.002-1.213.148-2.391.423-3.519l-.021.102q.42-1.68 1.322-2.987c.601-.869 1.383-1.576 2.304-2.112s2.044-.807 3.346-.807 2.404.278 3.327.828a7.06 7.06 0 0 1 2.227 2.152l.016.027q.872 1.354 1.263 3.006c.241.986.38 2.118.38 3.283v.028-.001a12.255 12.255 0 0 1-.481 3.399l.021-.087c-.302 1.076-.763 2.024-1.384 2.852s-1.361 1.497-2.264 2.004-1.944.761-3.144.761z"/></symbol></defs></svg>